<svg width="172" height="39" viewBox="0 0 172 39" fill="none" xmlns="http://www.w3.org/2000/svg">
<path d="M14.1831 19.5512H9.90076V25.5617C9.90076 26.4598 10.2433 27.047 10.8943 27.2542C11.5452 27.4615 12.6414 27.5306 14.1831 27.4615V33.6792C10.1063 34.1628 7.22858 33.7828 5.58416 32.5393C3.93975 31.2957 3.08328 29.0159 3.08328 25.7344V19.5512H0V12.9536H3.08328V9.22301L9.90076 7.15045V12.9536H14.1831V19.5512Z" fill="#0A0A0A"/>
<path d="M24.4607 16.8224C24.8376 15.4752 25.6255 14.4044 26.7561 13.679C27.9209 12.9191 29.1884 12.5737 30.6273 12.5737V20.2076C29.0514 19.9658 27.6468 20.2421 26.3792 21.0712C25.1116 21.9002 24.4607 23.2473 24.4607 25.1472V33.7137H17.6432V12.9882H24.4607V16.857V16.8224Z" fill="#0A0A0A"/>
<path d="M47.2084 12.9882H54.0259V33.7138H47.2084V31.8139C45.8038 33.472 43.851 34.301 41.3844 34.301C38.6437 34.301 36.3484 33.2647 34.4984 31.1576C32.6485 29.0505 31.7235 26.4598 31.7235 23.351C31.7235 20.2422 32.6485 17.6169 34.4984 15.5444C36.3484 13.4718 38.6437 12.401 41.3844 12.401C43.8853 12.401 45.8381 13.23 47.2084 14.8881V12.9882ZM39.74 26.598C40.528 27.427 41.59 27.8415 42.8575 27.8415C44.1251 27.8415 45.1871 27.427 45.9751 26.598C46.763 25.769 47.1741 24.6636 47.1741 23.3165C47.1741 21.9693 46.763 20.8639 45.9751 20.0349C45.1871 19.2059 44.1251 18.7914 42.8575 18.7914C41.59 18.7914 40.528 19.2059 39.74 20.0349C38.9521 20.8639 38.541 21.9693 38.541 23.3165C38.541 24.6636 38.9521 25.769 39.74 26.598Z" fill="#0A0A0A"/>
<path d="M96.6309 25.8726C97.3161 27.5651 98.8577 28.3942 101.222 28.3942C102.695 28.3942 103.962 27.9106 104.956 26.9434L109.889 30.4322C107.868 32.9883 104.922 34.301 101.05 34.301C97.5559 34.301 94.7809 33.2647 92.6912 31.2267C90.6014 29.1541 89.5394 26.5634 89.5394 23.42C89.5394 20.2767 90.5671 17.686 92.6226 15.5789C94.6782 13.4718 97.2818 12.4355 100.468 12.4355C103.654 12.4355 106.086 13.4718 108.073 15.5443C110.06 17.6169 111.088 20.2076 111.088 23.3509C111.088 24.2491 110.985 25.1126 110.814 25.9071H96.6309V25.8726ZM96.5624 21.1057H104.442C103.894 19.1713 102.592 18.2041 100.571 18.2041C98.5494 18.2041 97.1105 19.1713 96.5281 21.1057H96.5624Z" fill="#0A0A0A"/>
<path d="M120.852 16.8224C121.229 15.4752 122.017 14.4044 123.147 13.679C124.312 12.9191 125.58 12.5737 127.018 12.5737V20.2076C125.443 19.9658 124.038 20.2421 122.77 21.0712C121.503 21.9002 120.852 23.2473 120.852 25.1472V33.7137H114.034V12.9882H120.852V16.857V16.8224Z" fill="#0A0A0A"/>
<path d="M142.846 12.9881H150.417L142.743 33.7137H135.343L127.669 12.9881H135.24L139.077 24.8708L142.914 12.9881H142.846Z" fill="#0A0A0A"/>
<path d="M157.543 25.8726C158.228 27.5651 159.77 28.3942 162.134 28.3942C163.607 28.3942 164.874 27.9106 165.868 26.9434L170.801 30.4322C168.78 32.9883 165.833 34.301 161.962 34.301C158.468 34.301 155.693 33.2647 153.603 31.2267C151.513 29.1541 150.451 26.5634 150.451 23.42C150.451 20.2767 151.479 17.686 153.535 15.5789C155.59 13.4718 158.194 12.4355 161.38 12.4355C164.566 12.4355 166.998 13.4718 168.985 15.5443C170.972 17.6169 172 20.2076 172 23.3509C172 24.2491 171.897 25.1126 171.726 25.9071H157.543V25.8726ZM157.44 21.1057H165.32C164.771 19.1713 163.47 18.2041 161.448 18.2041C159.427 18.2041 157.988 19.1713 157.406 21.1057H157.44Z" fill="#0A0A0A"/>
<path d="M59.9732 12.1258C59.9732 6.53347 64.481 2 70.0417 2H73.9815C79.5422 2 84.05 6.53347 84.05 12.1258V26.8742C84.05 32.4665 79.5422 37 73.9815 37H70.0417C64.481 37 59.9732 32.4665 59.9732 26.8742V12.1258Z" fill="#E5855D"/>
<path fill-rule="evenodd" clip-rule="evenodd" d="M70.0417 0.239014H73.9815C80.5093 0.239014 85.801 5.56091 85.801 12.1258V26.8742C85.801 33.4391 80.5093 38.761 73.9815 38.761H70.0417C63.5139 38.761 58.2221 33.4391 58.2221 26.8742V12.1258C58.2221 5.56091 63.5139 0.239014 70.0417 0.239014ZM70.0417 2.00002C64.481 2.00002 59.9732 6.53349 59.9732 12.1258V26.8742C59.9732 32.4665 64.481 37 70.0417 37H73.9815C79.5422 37 84.05 32.4665 84.05 26.8742V12.1258C84.05 6.53349 79.5422 2.00002 73.9815 2.00002H70.0417Z" fill="#E0E9EB"/>
<path d="M67.6882 12.7862H65.636V22.9758H67.6882V12.7862Z" fill="white"/>
<path d="M70.397 16.862H68.3448V27.0516H70.397V16.862Z" fill="white"/>
<path d="M73.1058 19.9189H71.0536V30.1086H73.1058V19.9189Z" fill="white"/>
<path d="M79.1801 14.8241V15.029V20.9379H80.8591H81.2322V14.8241H79.1801Z" fill="white"/>
<path d="M62.9272 14.8241V15.029V20.9379H64.6063H64.9794V14.8241H62.9272Z" fill="white"/>
<path d="M78.5234 12.7862H76.4713V22.9758H78.5234V12.7862Z" fill="white"/>
<path d="M75.8146 16.862H73.7625V27.0516H75.8146V16.862Z" fill="white"/>
<path fill-rule="evenodd" clip-rule="evenodd" d="M73.4498 37H70.0417C65.503 37 61.6657 33.9798 60.4085 29.8288C61.1877 29.4797 63.4688 28.9505 64.7972 31.2476C65.8361 30.3957 68.2862 30.1036 69.8264 33.1705C71.1192 33.0508 73.6482 34.3162 73.4498 37Z" fill="white"/>
</svg>
