<svg width="15" height="15" viewBox="0 0 15 15" fill="none" xmlns="http://www.w3.org/2000/svg">
<path d="M3.75 3.75C3.75 3.40483 4.02983 3.125 4.375 3.125H10.625C10.9702 3.125 11.25 3.40483 11.25 3.75C11.25 4.09518 10.9702 4.375 10.625 4.375H4.375C4.02982 4.375 3.75 4.09518 3.75 3.75Z" fill="#1E1E1E"/>
<path d="M3.75 6.25C3.75 5.90482 4.02983 5.625 4.375 5.625H10.625C10.9702 5.625 11.25 5.90482 11.25 6.25C11.25 6.59519 10.9702 6.875 10.625 6.875H4.375C4.02982 6.875 3.75 6.59519 3.75 6.25Z" fill="#1E1E1E"/>
<path d="M4.375 8.125C4.02983 8.125 3.75 8.40481 3.75 8.75C3.75 9.09519 4.02982 9.375 4.375 9.375H10.625C10.9702 9.375 11.25 9.09519 11.25 8.75C11.25 8.40481 10.9702 8.125 10.625 8.125H4.375Z" fill="#1E1E1E"/>
<path d="M3.75 11.25C3.75 10.9048 4.02983 10.625 4.375 10.625H6.875C7.22019 10.625 7.5 10.9048 7.5 11.25C7.5 11.5952 7.22019 11.875 6.875 11.875H4.375C4.02983 11.875 3.75 11.5952 3.75 11.25Z" fill="#1E1E1E"/>
<path fill-rule="evenodd" clip-rule="evenodd" d="M1.25 2.5C1.25 1.46447 2.08947 0.625 3.125 0.625H11.875C12.9106 0.625 13.75 1.46447 13.75 2.5V12.5C13.75 13.5356 12.9106 14.375 11.875 14.375H3.125C2.08947 14.375 1.25 13.5356 1.25 12.5V2.5ZM3.125 1.875H11.875C12.2202 1.875 12.5 2.15482 12.5 2.5V12.5C12.5 12.8452 12.2202 13.125 11.875 13.125H3.125C2.77982 13.125 2.5 12.8452 2.5 12.5V2.5C2.5 2.15482 2.77982 1.875 3.125 1.875Z" fill="#1E1E1E"/>
</svg>
